<svg width="1070" height="317" viewBox="0 0 1070 317" fill="none" xmlns="http://www.w3.org/2000/svg">
<g id="Group 1">
<g id="Group 3">
<path id="Rectangle 2" d="M19.4863 80H85.8379L136.961 137.943L104.873 180.61L19.4863 80Z" fill="url(#paint0_radial_19_2)"/>
<path id="Rectangle 1" d="M176.025 200.785V289H111.576L176.025 200.785Z" fill="url(#paint1_linear_19_2)"/>
<path id="Rectangle 3" d="M195.313 80H266L111.576 288.604L112.664 190.87L195.313 80Z" fill="#1D3C6D"/>
</g>
</g>
<path id="Vector" d="M26.2293 250.199L26.2365 250.203L116.82 304.24C116.822 304.241 116.823 304.241 116.825 304.242C125.198 309.269 133.677 311.98 142.391 312C151.108 312.02 159.658 309.345 168.172 304.245C168.173 304.244 168.175 304.243 168.176 304.242L258.764 250.203L258.771 250.199C259.108 249.997 259.445 249.796 259.781 249.596C265.208 246.356 270.496 243.2 274.171 238.239C278.263 232.716 280 225.597 280 215.152L280 104.628C280 94.3879 278.204 86.7963 274.476 80.7448C270.767 74.7225 265.481 70.7918 259.708 67.294L259.695 67.2864L259.683 67.2789L168.837 12.9685C168.834 12.9671 168.832 12.9657 168.83 12.9643C160.11 7.71926 151.297 4.98057 142.343 5.0001C133.391 5.01963 124.68 7.7947 116.16 12.9704L25.3184 67.2789L25.3059 67.2863L25.2935 67.2939C19.5193 70.7916 14.2335 74.7224 10.5238 80.7447C6.79617 86.7963 5 94.3879 5 104.628V211.344C5 221.821 6.75012 229.651 10.5712 235.951C14.381 242.233 19.9069 246.413 26.2293 250.199Z" stroke="url(#paint2_linear_19_2)" stroke-width="10"/>
<path id="youcoinx 1 (Traced)" fill-rule="evenodd" clip-rule="evenodd" d="M584.014 81.4286C578.811 83.1888 572.904 88.3915 569.676 94.0561L567.285 98.2544L566.98 193.598L566.676 288.942L584.214 288.586C601.468 288.238 601.842 288.18 607.194 285.078C611.276 282.711 613.392 280.505 615.675 276.232L618.716 270.537V216.145C618.716 185.871 619.144 161.754 619.682 161.754C620.213 161.754 622.079 163.343 623.83 165.286C625.579 167.228 637.962 179.621 651.345 192.824C664.728 206.027 681.153 222.258 687.844 228.894C704.433 245.344 733.232 273.56 739.14 279.149C744.647 284.359 753.628 288.731 758.854 288.746C770.222 288.779 780.475 283.723 784.87 275.914L787.389 271.439L787.702 178.548C787.874 127.459 787.74 84.5972 787.404 83.2979C786.805 80.9804 786.488 80.9363 770.5 80.9594C752.126 80.9857 747.658 82.1392 742.231 88.2603C735.293 96.085 735.495 94.3122 734.87 152.671L734.298 206.039L712.787 184.683C691.414 163.466 662.737 134.899 636.572 108.759C614.794 87.002 610.304 83.2392 603.983 81.4581C597.12 79.5248 589.677 79.5131 584.014 81.4286ZM385.893 82.1077C343.328 87.9811 308.021 117.164 294.976 157.253C292.175 165.857 291.976 167.747 292.002 185.369C292.026 202.853 292.251 204.952 295.006 213.496C305.787 246.931 333.356 272.896 369.302 283.466C385.775 288.31 394.621 288.715 484.608 288.736L534.657 288.757V265.752C534.657 253.099 534.355 241.997 533.985 241.084C533.381 239.59 533.415 238.313 484.49 239.415C432.206 239.411 398.711 239.002 394.189 238.314C364.433 233.786 342.726 206.257 346.516 177.854C349.264 157.256 363.189 141.063 385.377 132.662C389.929 130.938 397.307 130.751 479.354 130.267L534.104 129.742L534.434 109.8C534.617 98.8317 534.462 87.8499 534.09 85.3971L533.415 80.9364L480.116 81.0645C431.944 81.1348 389.543 81.6039 385.893 82.1077ZM813.381 81.8243C813.381 82.3123 816.245 85.9732 819.747 89.9585C823.248 93.9437 831.809 103.817 838.77 111.899C845.732 119.981 860.909 137.22 872.498 150.209C904.17 185.706 902.392 183.456 900.616 185.791C898.833 188.133 893.691 194.06 858.177 234.701C812.402 287.082 811.934 287.649 813.755 288.311C814.665 288.643 828.268 288.758 843.983 288.568C882.206 288.106 880.965 288.658 903.576 261.992C920.189 242.398 940.63 219.48 941.452 219.525C941.883 219.548 943.729 221.409 945.554 223.659C947.379 225.909 957.335 237.346 967.68 249.07C978.025 260.795 988.412 272.665 990.765 275.445C996.109 281.764 1001.69 285.311 1009.31 287.236C1016.66 289.092 1069.98 289.457 1069.98 287.651C1069.98 287.044 1062.12 277.716 1052.51 266.922C1002.32 209.145 954.019 154.547 903.576 96.7431C889.404 80.2657 879.215 80.9364 841.384 80.9364C825.982 80.9364 813.381 81.3362 813.381 81.8243ZM1007.91 82.3859C1005.72 83.1322 1002.1 84.8084 999.874 86.112C995.408 88.7307 955.704 133.195 955.704 135.648C955.704 138.19 989.959 174.541 991.647 173.971C992.712 173.612 1013.82 147.437 1051.21 103.502C1060.55 92.5342 1068.65 82.9705 1069.22 82.2483C1070.73 80.3297 1013.6 80.4579 1007.91 82.3859Z" fill="#1D3C6D"/>
<defs>
<radialGradient id="paint0_radial_19_2" cx="0" cy="0" r="1" gradientUnits="userSpaceOnUse" gradientTransform="translate(62.9956 102.124) rotate(61.6892) scale(96.3296 110.91)">
<stop offset="0.3" stop-color="#CB9C4E"/>
<stop offset="0.915" stop-color="#654E27"/>
</radialGradient>
<linearGradient id="paint1_linear_19_2" x1="183.066" y1="258.891" x2="159.641" y2="212.457" gradientUnits="userSpaceOnUse">
<stop offset="0.315" stop-color="#CB9C4E"/>
<stop offset="0.975" stop-color="#654E27"/>
</linearGradient>
<linearGradient id="paint2_linear_19_2" x1="-0.945655" y1="-4.73214" x2="228.012" y2="265.368" gradientUnits="userSpaceOnUse">
<stop stop-color="#CB9C4E"/>
<stop offset="0.995152" stop-color="#1D3C6D"/>
</linearGradient>
</defs>
</svg>
